<?xml version="1.0" encoding="utf-8"?>
<!-- Generator: Adobe Illustrator 26.0.3, SVG Export Plug-In . SVG Version: 6.00 Build 0)  -->
<svg version="1.1" id="Layer_1" xmlns="http://www.w3.org/2000/svg" xmlns:xlink="http://www.w3.org/1999/xlink" x="0px" y="0px"
	 viewBox="0 0 105.43 120.96" style="enable-background:new 0 0 105.43 120.96;" xml:space="preserve">
<style type="text/css">
	.st0{fill:#FFFFFF;}
	.st1{fill:#702E3E;}
	.st2{fill:#B89198;}
	.st3{fill:#945F69;}
	.st4{fill:#7F424F;}
</style>
<g>
	<path class="st0" d="M58.09,6.59c0.09,0.01,0.17,0.01,0.26,0.02c3.78,0.32,7.51,1.17,11.05,2.54c0.04,0.01,0.08,0.03,0.11,0.04
		c0.13,0.05,0.26,0.1,0.39,0.15c0.1,0.04,0.2,0.08,0.3,0.12c0.07,0.03,0.13,0.06,0.2,0.08c0.16,0.07,0.33,0.14,0.49,0.21
		c0.01,0,0.01,0.01,0.02,0.01c1.39,0.6,2.75,1.29,4.08,2.05c1,0.58,1.98,1.2,2.92,1.85l-6.16,8.48c-0.07-0.05-0.15-0.1-0.22-0.15
		c-0.05-0.04-0.11-0.07-0.16-0.11c-0.11-0.07-0.22-0.15-0.33-0.22c-0.08-0.05-0.16-0.1-0.23-0.15c-0.03-0.02-0.07-0.04-0.1-0.06
		c-0.24-0.15-0.48-0.29-0.72-0.44c-0.01-0.01-0.03-0.01-0.04-0.02c-1.11-0.65-2.26-1.23-3.45-1.73c-2.4-1.02-4.9-1.7-7.47-2.05
		c-0.09-0.01-0.19-0.03-0.28-0.04c0,0,0,0,0,0c-0.98-0.12-1.97-0.2-2.96-0.22V6.49c0.75,0.01,1.5,0.05,2.25,0.1
		C58.04,6.59,58.06,6.59,58.09,6.59"/>
	<path class="st1" d="M39.53,9.51c0.16-0.07,0.33-0.13,0.49-0.2c0.07-0.03,0.13-0.05,0.2-0.08c0.1-0.04,0.2-0.08,0.3-0.12
		c0.13-0.05,0.26-0.1,0.39-0.15c0.04-0.01,0.08-0.03,0.11-0.04c3.35-1.23,6.85-2,10.41-2.31c0.87-0.07,1.74-0.11,2.62-0.13v10.47
		c-1.09,0.03-2.17,0.11-3.25,0.26c-2.57,0.35-5.07,1.03-7.47,2.04c-1.18,0.5-2.31,1.07-3.4,1.71c-0.05,0.03-0.1,0.06-0.14,0.08
		c-0.11,0.06-0.21,0.13-0.32,0.19c-0.15,0.09-0.31,0.19-0.46,0.29c-0.05,0.03-0.11,0.07-0.16,0.1c-0.14,0.09-0.28,0.18-0.42,0.28
		c-0.03,0.02-0.06,0.04-0.09,0.06c-0.08,0.06-0.17,0.11-0.25,0.17l-6.16-8.48c0.94-0.65,1.91-1.27,2.92-1.85
		c1.51-0.87,3.08-1.64,4.68-2.31C39.52,9.51,39.53,9.51,39.53,9.51"/>
</g>
<g>
	<path class="st1" d="M38.48,54.85V44.33l-2.13,1.61l-1.43-2.5l3.91-2.86h2.82v14.26H38.48z"/>
	<path class="st1" d="M53.95,47.72c0,0.81-0.06,1.64-0.19,2.52c-0.13,0.87-0.36,1.67-0.71,2.41c-0.34,0.73-0.82,1.33-1.43,1.8
		c-0.61,0.47-1.4,0.7-2.37,0.7s-1.76-0.23-2.37-0.7c-0.61-0.47-1.09-1.07-1.43-1.8c-0.34-0.73-0.57-1.53-0.69-2.41
		c-0.12-0.87-0.18-1.71-0.18-2.52s0.06-1.64,0.18-2.52c0.12-0.87,0.35-1.67,0.69-2.41c0.34-0.73,0.82-1.33,1.43-1.8
		s1.4-0.71,2.37-0.71s1.76,0.24,2.37,0.71c0.61,0.47,1.09,1.07,1.43,1.8c0.34,0.73,0.58,1.53,0.71,2.41
		C53.88,46.07,53.95,46.91,53.95,47.72z M50.73,47.72c0-0.47-0.02-0.97-0.05-1.51c-0.03-0.54-0.1-1.03-0.21-1.49
		c-0.11-0.46-0.26-0.84-0.44-1.14c-0.19-0.3-0.44-0.45-0.77-0.45s-0.58,0.15-0.77,0.45c-0.19,0.3-0.34,0.68-0.44,1.14
		c-0.11,0.46-0.18,0.95-0.21,1.49c-0.03,0.54-0.05,1.04-0.05,1.51c0,0.48,0.02,0.99,0.05,1.53c0.03,0.54,0.1,1.03,0.21,1.48
		c0.11,0.45,0.25,0.83,0.44,1.13c0.19,0.3,0.44,0.45,0.77,0.45s0.58-0.15,0.77-0.45c0.19-0.3,0.34-0.68,0.44-1.13
		c0.11-0.45,0.18-0.94,0.21-1.48C50.71,48.71,50.73,48.2,50.73,47.72z"/>
	<path class="st1" d="M63.94,47.72c0,0.81-0.06,1.64-0.19,2.52c-0.13,0.87-0.36,1.67-0.71,2.41c-0.34,0.73-0.82,1.33-1.43,1.8
		c-0.61,0.47-1.4,0.7-2.37,0.7s-1.76-0.23-2.37-0.7c-0.61-0.47-1.09-1.07-1.43-1.8c-0.34-0.73-0.57-1.53-0.7-2.41
		s-0.18-1.71-0.18-2.52s0.06-1.64,0.18-2.52s0.35-1.67,0.7-2.41c0.34-0.73,0.82-1.33,1.43-1.8c0.61-0.47,1.4-0.71,2.37-0.71
		s1.76,0.24,2.37,0.71c0.61,0.47,1.09,1.07,1.43,1.8c0.34,0.73,0.58,1.53,0.71,2.41C63.87,46.07,63.94,46.91,63.94,47.72z
		 M60.72,47.72c0-0.47-0.02-0.97-0.05-1.51c-0.03-0.54-0.1-1.03-0.21-1.49c-0.11-0.46-0.26-0.84-0.44-1.14
		c-0.19-0.3-0.44-0.45-0.77-0.45s-0.58,0.15-0.76,0.45c-0.19,0.3-0.34,0.68-0.44,1.14c-0.11,0.46-0.18,0.95-0.21,1.49
		c-0.03,0.54-0.05,1.04-0.05,1.51c0,0.48,0.02,0.99,0.05,1.53s0.1,1.03,0.21,1.48c0.11,0.45,0.25,0.83,0.44,1.13
		c0.19,0.3,0.44,0.45,0.76,0.45s0.58-0.15,0.77-0.45c0.19-0.3,0.33-0.68,0.44-1.13c0.11-0.45,0.18-0.94,0.21-1.48
		S60.72,48.2,60.72,47.72z"/>
	<path class="st1" d="M70.18,44.15c0,0.55-0.07,1.05-0.2,1.51c-0.13,0.46-0.33,0.85-0.57,1.19c-0.25,0.34-0.55,0.6-0.91,0.79
		c-0.36,0.19-0.76,0.28-1.22,0.28c-0.44,0-0.84-0.09-1.2-0.28c-0.36-0.19-0.66-0.45-0.91-0.79c-0.25-0.33-0.44-0.73-0.57-1.19
		c-0.13-0.46-0.2-0.96-0.2-1.51s0.07-1.06,0.2-1.52c0.13-0.46,0.33-0.87,0.57-1.21c0.25-0.34,0.55-0.61,0.91-0.8
		c0.36-0.19,0.75-0.28,1.2-0.28c0.46,0,0.86,0.09,1.22,0.28c0.36,0.19,0.66,0.45,0.91,0.8c0.25,0.34,0.44,0.75,0.57,1.21
		C70.11,43.1,70.18,43.6,70.18,44.15z M68.25,44.13c0-0.56-0.08-1.03-0.23-1.4c-0.16-0.37-0.4-0.55-0.74-0.55
		c-0.31,0-0.54,0.19-0.7,0.55s-0.23,0.84-0.23,1.4c0,0.54,0.08,1,0.23,1.38s0.39,0.57,0.7,0.57c0.33,0,0.58-0.19,0.74-0.57
		C68.17,45.13,68.25,44.67,68.25,44.13z M68.69,55.27l-1.51-0.54l6.1-14.74l1.49,0.58L68.69,55.27z M77.49,51.38
		c0,0.55-0.07,1.05-0.2,1.51c-0.13,0.46-0.33,0.85-0.57,1.19c-0.25,0.34-0.55,0.6-0.91,0.79c-0.36,0.19-0.76,0.28-1.22,0.28
		c-0.44,0-0.84-0.09-1.2-0.28c-0.36-0.19-0.66-0.45-0.91-0.79c-0.25-0.33-0.44-0.73-0.57-1.19c-0.13-0.46-0.2-0.96-0.2-1.51
		s0.07-1.06,0.2-1.52c0.13-0.46,0.33-0.86,0.57-1.2c0.25-0.33,0.55-0.6,0.91-0.79c0.36-0.19,0.76-0.28,1.2-0.28
		c0.46,0,0.86,0.09,1.22,0.28c0.36,0.19,0.66,0.45,0.91,0.79c0.25,0.34,0.44,0.74,0.57,1.2C77.43,50.33,77.49,50.83,77.49,51.38z
		 M75.54,51.36c0-0.55-0.07-1.01-0.22-1.39c-0.15-0.38-0.39-0.56-0.73-0.56c-0.31,0-0.54,0.19-0.69,0.56s-0.23,0.84-0.23,1.39
		s0.08,1.01,0.23,1.39s0.39,0.56,0.69,0.56c0.34,0,0.58-0.19,0.73-0.56C75.47,52.38,75.54,51.91,75.54,51.36z"/>
</g>
<g>
	<path class="st2" d="M89.57,66.27c-1.21,2.09-2.6,4.06-4.15,5.88c-0.06,0.06-0.11,0.13-0.17,0.19c-0.04,0.04-0.07,0.08-0.11,0.13
		c-0.61,0.7-1.25,1.39-1.91,2.05c-1.32,1.32-2.71,2.53-4.18,3.64l-6.16-8.48c0.14-0.11,0.29-0.22,0.43-0.33
		c0.05-0.04,0.1-0.08,0.15-0.12c0.1-0.08,0.19-0.16,0.29-0.23c1.76-1.45,3.35-3.1,4.73-4.94c0.32-0.43,0.63-0.86,0.93-1.31
		c0.01-0.02,0.02-0.03,0.03-0.05c0.11-0.17,0.23-0.34,0.34-0.51c0.03-0.05,0.07-0.11,0.1-0.16c0.09-0.14,0.17-0.28,0.26-0.42
		c0.05-0.08,0.1-0.17,0.15-0.25c0.07-0.11,0.13-0.22,0.2-0.33c0.06-0.11,0.13-0.23,0.19-0.34c0.05-0.09,0.1-0.17,0.14-0.26
		c0.08-0.14,0.15-0.29,0.23-0.43c0.03-0.06,0.06-0.11,0.09-0.17c0.09-0.18,0.18-0.36,0.27-0.55c0.01-0.02,0.02-0.04,0.03-0.06
		c0.24-0.48,0.46-0.97,0.67-1.46c0.23-0.55,0.45-1.11,0.65-1.67l9.96,3.24c-0.31,0.9-0.65,1.78-1.02,2.65
		C91.09,63.44,90.37,64.87,89.57,66.27"/>
	<path class="st3" d="M70.29,83.17c-0.16,0.07-0.33,0.13-0.49,0.2c-0.07,0.03-0.13,0.05-0.2,0.08c-0.1,0.04-0.2,0.08-0.3,0.12
		c-0.13,0.05-0.26,0.1-0.39,0.15c-0.04,0.01-0.07,0.03-0.11,0.04c-3.35,1.23-6.85,2-10.41,2.31c-0.87,0.07-1.74,0.11-2.62,0.13
		V75.71c1.09-0.03,2.17-0.11,3.25-0.26c2.57-0.35,5.07-1.03,7.47-2.04c1.18-0.5,2.31-1.07,3.4-1.71c0.05-0.03,0.1-0.06,0.15-0.08
		c0.11-0.06,0.21-0.13,0.32-0.19c0.15-0.09,0.31-0.19,0.46-0.28c0.05-0.03,0.11-0.07,0.16-0.1c0.14-0.09,0.28-0.18,0.42-0.28
		c0.03-0.02,0.06-0.04,0.09-0.06c0.08-0.06,0.17-0.11,0.25-0.17L77.9,79c-0.94,0.65-1.91,1.27-2.92,1.85
		c-1.51,0.87-3.07,1.64-4.68,2.31C70.3,83.17,70.29,83.17,70.29,83.17"/>
	<path class="st3" d="M52.01,86.08c-0.08-0.01-0.17-0.01-0.25-0.02c-3.79-0.32-7.52-1.18-11.06-2.54c-0.03-0.01-0.06-0.02-0.09-0.03
		c-0.14-0.05-0.28-0.11-0.41-0.16c-0.09-0.04-0.18-0.07-0.27-0.11c-0.08-0.03-0.15-0.06-0.23-0.1c-0.15-0.06-0.31-0.13-0.46-0.19
		c-0.02-0.01-0.03-0.01-0.05-0.02c-1.39-0.6-2.74-1.29-4.06-2.05c-1-0.58-1.98-1.2-2.92-1.85l6.16-8.48
		c0.07,0.05,0.14,0.1,0.22,0.15c0.06,0.04,0.12,0.08,0.18,0.12c0.1,0.07,0.2,0.13,0.3,0.2c0.36,0.23,0.72,0.46,1.09,0.67l0,0
		c1.11,0.65,2.27,1.24,3.46,1.74c2.41,1.02,4.91,1.7,7.48,2.05c0.09,0.01,0.17,0.02,0.25,0.03c0.01,0,0.03,0,0.04,0
		c0.97,0.12,1.96,0.2,2.94,0.22v10.48c-0.75-0.01-1.5-0.05-2.24-0.1C52.06,86.09,52.03,86.09,52.01,86.08"/>
	<path class="st4" d="M26.87,74.52c-0.65-0.65-1.28-1.32-1.88-2.01c-0.06-0.06-0.11-0.13-0.17-0.19c-0.04-0.05-0.08-0.1-0.13-0.15
		c-1.55-1.83-2.95-3.8-4.16-5.9c-0.81-1.4-1.52-2.83-2.15-4.29c-0.37-0.87-0.71-1.75-1.01-2.64l9.96-3.24
		c0.2,0.56,0.42,1.12,0.65,1.68c0.21,0.49,0.43,0.98,0.67,1.46c0.01,0.02,0.02,0.04,0.03,0.06c0.09,0.18,0.18,0.37,0.27,0.55
		c0.03,0.06,0.06,0.11,0.09,0.17c0.08,0.15,0.15,0.29,0.23,0.43c0.05,0.08,0.09,0.17,0.14,0.26c0.06,0.11,0.13,0.23,0.19,0.34
		c0.06,0.11,0.13,0.22,0.2,0.33c0.05,0.08,0.1,0.17,0.15,0.25c0.08,0.14,0.17,0.28,0.26,0.42c0.03,0.05,0.07,0.11,0.1,0.16
		c0.11,0.17,0.22,0.34,0.34,0.51c0.01,0.02,0.02,0.03,0.03,0.05c0.3,0.44,0.61,0.88,0.93,1.31c1.4,1.86,3.01,3.53,4.8,4.99
		c0.06,0.05,0.12,0.1,0.19,0.15c0.07,0.06,0.14,0.11,0.21,0.16c0.13,0.11,0.26,0.21,0.4,0.31l-6.16,8.48
		C29.58,77.05,28.18,75.84,26.87,74.52"/>
	<path class="st1" d="M20.53,26.41c1.21-2.09,2.6-4.06,4.15-5.89c0.05-0.06,0.1-0.12,0.15-0.18c0.04-0.05,0.09-0.1,0.13-0.15
		c0.61-0.7,1.24-1.38,1.9-2.04c1.32-1.32,2.71-2.53,4.18-3.64l6.16,8.48c-0.14,0.11-0.28,0.22-0.42,0.33
		c-0.05,0.04-0.1,0.08-0.15,0.12c-0.09,0.07-0.18,0.15-0.27,0.22c-1.77,1.45-3.35,3.1-4.74,4.94c-0.32,0.43-0.63,0.86-0.93,1.31
		c-0.01,0.02-0.02,0.03-0.03,0.05c-0.11,0.17-0.23,0.34-0.33,0.51c-0.03,0.05-0.07,0.11-0.1,0.16c-0.09,0.14-0.17,0.28-0.26,0.42
		c-0.05,0.08-0.1,0.17-0.15,0.25c-0.07,0.11-0.13,0.22-0.2,0.33c-0.07,0.11-0.13,0.23-0.19,0.34c-0.05,0.08-0.09,0.17-0.14,0.25
		c-0.08,0.14-0.15,0.29-0.23,0.43c-0.03,0.06-0.06,0.11-0.09,0.17c-0.09,0.18-0.19,0.36-0.28,0.55c-0.01,0.02-0.02,0.04-0.03,0.06
		c-0.24,0.48-0.46,0.97-0.67,1.46c-0.23,0.55-0.45,1.11-0.65,1.67l-9.96-3.24c0.31-0.9,0.65-1.78,1.01-2.64
		C19.01,29.24,19.73,27.81,20.53,26.41"/>
	<path class="st0" d="M83.23,18.15c0.65,0.65,1.28,1.33,1.88,2.02c0.05,0.06,0.11,0.12,0.16,0.18c0.04,0.05,0.09,0.1,0.13,0.16
		c1.55,1.83,2.95,3.8,4.16,5.9c0.81,1.39,1.52,2.82,2.15,4.28c0.37,0.87,0.71,1.75,1.02,2.65l-9.96,3.24
		c-0.2-0.56-0.42-1.12-0.65-1.67c-0.21-0.49-0.43-0.98-0.67-1.46c-0.01-0.02-0.02-0.04-0.03-0.06c-0.09-0.18-0.18-0.37-0.27-0.55
		c-0.03-0.06-0.06-0.11-0.09-0.17c-0.08-0.15-0.15-0.29-0.23-0.43c-0.05-0.09-0.09-0.17-0.14-0.26c-0.06-0.11-0.13-0.23-0.19-0.34
		c-0.06-0.11-0.13-0.22-0.2-0.33c-0.05-0.08-0.1-0.17-0.15-0.25c-0.08-0.14-0.17-0.28-0.26-0.42c-0.03-0.05-0.07-0.11-0.1-0.16
		c-0.11-0.17-0.22-0.34-0.34-0.51c-0.01-0.02-0.02-0.03-0.03-0.05c-0.3-0.44-0.61-0.88-0.93-1.31c-1.4-1.85-3-3.52-4.79-4.98
		c-0.07-0.06-0.14-0.11-0.21-0.17c-0.06-0.05-0.13-0.1-0.19-0.15c-0.13-0.11-0.27-0.21-0.41-0.32l6.16-8.48
		C80.52,15.62,81.92,16.84,83.23,18.15"/>
	<path class="st2" d="M94.91,46.34c0,1.61-0.1,3.2-0.28,4.78c-0.23,1.86-0.58,3.7-1.07,5.54c-0.12,0.44-0.24,0.88-0.38,1.32
		l-9.96-3.24c0.04-0.15,0.09-0.3,0.13-0.45c0-0.02,0.01-0.03,0.01-0.05c0.03-0.1,0.05-0.19,0.08-0.29c0.03-0.1,0.05-0.19,0.08-0.29
		c0-0.02,0.01-0.03,0.01-0.05c0.3-1.19,0.53-2.41,0.69-3.64c0.12-1,0.2-2,0.22-3c0-0.02,0-0.03,0-0.05c0-0.09,0-0.18,0-0.27
		c0-0.04,0-0.08,0-0.12c0-0.06,0-0.13,0-0.19c0-0.06,0-0.13,0-0.19c0-0.04,0-0.08,0-0.12c0-0.09,0-0.18,0-0.27c0-0.02,0-0.03,0-0.05
		c-0.02-1-0.09-2-0.22-3c-0.15-1.23-0.38-2.45-0.69-3.64c0-0.01-0.01-0.03-0.01-0.04c-0.03-0.1-0.05-0.2-0.08-0.3
		c-0.03-0.09-0.05-0.19-0.08-0.28c0-0.02-0.01-0.04-0.01-0.06c-0.04-0.15-0.09-0.3-0.13-0.45l9.96-3.24
		c0.13,0.44,0.26,0.87,0.38,1.32c0.49,1.83,0.85,3.68,1.07,5.54C94.81,43.13,94.91,44.73,94.91,46.34"/>
	<path class="st4" d="M26.75,38.4c-0.01,0.02-0.01,0.04-0.02,0.06c-0.03,0.09-0.05,0.19-0.08,0.28c-0.03,0.1-0.05,0.2-0.08,0.3
		c0,0.01-0.01,0.03-0.01,0.04c-0.3,1.19-0.53,2.41-0.69,3.64c-0.12,1-0.2,2-0.22,3c0,0.02,0,0.03,0,0.05c0,0.09,0,0.18,0,0.27
		c0,0.04,0,0.08,0,0.12c0,0.06,0,0.13,0,0.19c0,0.06,0,0.13,0,0.19c0,0.04,0,0.08,0,0.12c0,0.09,0,0.18,0,0.27c0,0.02,0,0.03,0,0.05
		c0.02,1,0.09,2,0.22,3c0.15,1.23,0.38,2.44,0.69,3.64c0,0.02,0.01,0.03,0.01,0.05c0.02,0.1,0.05,0.19,0.08,0.29
		c0.03,0.1,0.05,0.19,0.08,0.29c0,0.02,0.01,0.03,0.01,0.05c0.04,0.15,0.09,0.3,0.13,0.45l-9.96,3.24
		c-0.13-0.44-0.26-0.87-0.38-1.32c-0.49-1.83-0.85-3.68-1.08-5.54c-0.19-1.58-0.28-3.17-0.28-4.78c0-1.61,0.09-3.2,0.28-4.78
		c0.23-1.86,0.59-3.71,1.08-5.54c0.12-0.44,0.24-0.88,0.38-1.32l9.96,3.24C26.84,38.09,26.8,38.24,26.75,38.4"/>
</g>
<g>
	<path class="st1" d="M18.82,95.66c0,0.56-0.23,1.03-0.82,1.56l-1.66,1.54h2.48v0.82h-3.58v-0.96l2.08-2.01
		c0.45-0.43,0.55-0.65,0.55-0.91c0-0.44-0.35-0.7-0.78-0.7c-0.44,0-0.76,0.29-0.82,0.72l-0.95-0.08c0.1-0.99,0.79-1.51,1.77-1.51
		C18.13,94.14,18.82,94.69,18.82,95.66z"/>
	<path class="st1" d="M24.19,96.9c0,1.82-0.71,2.76-1.93,2.76s-1.93-0.94-1.93-2.76c0-1.83,0.72-2.76,1.93-2.76
		C23.47,94.14,24.19,95.08,24.19,96.9z M22.26,98.81c0.68,0,1.03-0.72,1.03-1.9c0-1.2-0.35-1.9-1.04-1.9c-0.66,0-1.02,0.7-1.02,1.9
		C21.23,98.05,21.56,98.81,22.26,98.81z"/>
	<path class="st1" d="M29.27,95.66c0,0.56-0.23,1.03-0.82,1.56l-1.66,1.54h2.48v0.82h-3.58v-0.96l2.08-2.01
		c0.45-0.43,0.55-0.65,0.55-0.91c0-0.44-0.35-0.7-0.78-0.7c-0.44,0-0.76,0.29-0.82,0.72l-0.95-0.08c0.1-0.99,0.79-1.51,1.78-1.51
		C28.57,94.14,29.27,94.69,29.27,95.66z"/>
	<path class="st1" d="M33.4,94.23v5.35h-0.91v-4.31l-1,0.93l-0.53-0.63l1.62-1.34H33.4z"/>
	<path class="st1" d="M43.91,94.77l-0.7,0.71c-0.36-0.35-0.9-0.52-1.4-0.52c-1.1,0-1.84,0.85-1.84,1.91c0,1.1,0.69,1.99,1.84,1.99
		c0.4,0,0.87-0.07,1.25-0.28v-1.26h-1.1v-0.86h2.05v2.73c-0.71,0.38-1.46,0.53-2.21,0.53c-1.66,0-2.83-1.13-2.83-2.79
		c0-1.68,1.15-2.83,2.83-2.83C42.55,94.09,43.35,94.25,43.91,94.77z"/>
	<path class="st1" d="M47.78,94.23c1.03,0,1.96,0.36,1.96,1.53c0,0.8-0.48,1.34-1.24,1.45l1.42,2.36h-1.15l-1.24-2.27h-0.69v2.27
		h-0.95v-5.35H47.78z M47.63,96.5c0.54,0,1.12-0.08,1.12-0.74c0-0.61-0.55-0.71-1.05-0.71h-0.85v1.45H47.63z"/>
	<path class="st1" d="M53.96,94.23l2.3,5.35h-1.09l-0.5-1.22h-2.32l-0.48,1.22h-1.06l2.33-5.35H53.96z M52.68,97.54h1.66l-0.82-2.18
		L52.68,97.54z"/>
	<path class="st1" d="M59.74,94.23c1.38,0,2.7,0.88,2.7,2.67c0,1.9-1.65,2.67-2.81,2.67h-2.02v-5.35H59.74z M59.31,98.72
		c1.14,0,2.13-0.51,2.13-1.81s-0.84-1.81-2-1.81h-0.88v3.62H59.31z"/>
	<path class="st1" d="M67.41,94.65l-0.7,0.73c-0.21-0.29-0.57-0.42-0.94-0.42c-0.54,0-0.88,0.27-0.88,0.69
		c0,0.36,0.3,0.56,0.83,0.73c0.85,0.26,1.71,0.54,1.71,1.64s-0.87,1.71-1.92,1.71c-0.75,0-1.38-0.23-1.79-0.72l0.72-0.7
		c0.23,0.36,0.63,0.56,1.06,0.56c0.51,0,0.94-0.3,0.94-0.73c0-0.4-0.27-0.61-0.96-0.82c-0.96-0.29-1.58-0.62-1.58-1.59
		s0.81-1.62,1.97-1.62C66.49,94.09,67.03,94.29,67.41,94.65z"/>
	<path class="st1" d="M72.62,94.23l1,3.85h0.01l1.2-3.85h0.94l1.18,3.85h0.01l1.05-3.85h0.97l-1.56,5.35h-0.91l-1.24-4.07h-0.01
		l-1.24,4.07h-0.88l-1.58-5.35H72.62z"/>
	<path class="st1" d="M81.27,94.23v5.35h-0.95v-5.35H81.27z"/>
	<path class="st1" d="M86.88,94.23v0.86h-1.64v4.49h-0.95v-4.49h-1.64v-0.86H86.88z"/>
	<path class="st1" d="M89.23,94.23v2.13h2.5v-2.13h0.95v5.35h-0.95v-2.36h-2.5v2.36h-0.95v-5.35H89.23z"/>
</g>
<g>
	<path class="st1" d="M24.64,103.71v3.9c0,0.76-0.49,1.59-1.61,1.59c-0.87,0-1.41-0.41-1.57-1.23l0.89-0.21
		c0.05,0.34,0.3,0.58,0.64,0.58c0.48,0,0.69-0.33,0.69-1v-3.62H24.64z"/>
	<path class="st1" d="M29.07,109.19c-1.65,0-2.81-1.13-2.81-2.79c0-1.54,1-2.83,2.86-2.83c1.69,0,2.81,1.13,2.81,2.8
		C31.93,108.05,30.72,109.19,29.07,109.19z M29.09,108.33c1.16,0,1.84-0.9,1.84-1.99c0-1.09-0.75-1.91-1.85-1.91
		c-1.09,0-1.83,0.85-1.83,1.91C27.26,107.44,27.94,108.33,29.09,108.33z"/>
	<path class="st1" d="M35.7,103.71c0.69,0,1.61,0.32,1.61,1.34c0,0.55-0.32,0.98-0.93,1.17v0.01c0.69,0.08,1.16,0.63,1.16,1.29
		c0,1.03-0.82,1.53-1.99,1.53h-1.96v-5.35H35.7z M35.43,105.88c0.57,0,0.92-0.26,0.92-0.67c0-0.47-0.35-0.69-1-0.69h-0.82v1.36
		H35.43z M35.44,108.24c0.76,0,1.14-0.26,1.14-0.79c0-0.54-0.36-0.75-1.09-0.75h-0.96v1.54H35.44z"/>
	<path class="st1" d="M42.55,104.12l-0.69,0.73c-0.21-0.29-0.57-0.42-0.94-0.42c-0.54,0-0.88,0.27-0.88,0.69
		c0,0.36,0.3,0.56,0.83,0.73c0.85,0.26,1.71,0.54,1.71,1.64s-0.87,1.71-1.92,1.71c-0.76,0-1.38-0.23-1.79-0.72l0.72-0.7
		c0.23,0.36,0.63,0.56,1.06,0.56c0.51,0,0.94-0.3,0.94-0.73c0-0.4-0.27-0.61-0.96-0.82c-0.96-0.29-1.58-0.62-1.58-1.59
		s0.81-1.62,1.97-1.62C41.63,103.57,42.17,103.77,42.55,104.12z"/>
	<path class="st1" d="M48.26,103.71v4.49h2.27v0.86h-3.23v-5.35H48.26z"/>
	<path class="st1" d="M52.91,103.71v5.35h-0.95v-5.35H52.91z"/>
	<path class="st1" d="M56.09,103.71l2.59,3.97h0.01v-3.97h0.95v5.35h-1.21l-2.64-4.1h-0.01v4.1h-0.95v-5.35H56.09z"/>
	<path class="st1" d="M65.14,103.71v0.86h-2.59v1.31H65v0.86h-2.45v1.45h2.73v0.86H61.6v-5.35H65.14z"/>
	<path class="st1" d="M69.09,103.71c1.38,0,2.7,0.88,2.7,2.67c0,1.9-1.65,2.67-2.81,2.67h-2.02v-5.35H69.09z M68.66,108.19
		c1.14,0,2.13-0.51,2.13-1.81s-0.84-1.81-2-1.81h-0.88v3.62H68.66z"/>
	<path class="st1" d="M77.36,103.71v3.38c0,0.49,0.28,1.2,1.2,1.2c0.92,0,1.2-0.71,1.2-1.2v-3.38h0.95v3.42
		c0,1.05-0.74,2.06-2.15,2.06c-1.42,0-2.15-1.02-2.15-2.06v-3.42H77.36z"/>
	<path class="st1" d="M84.48,103.71c0.69,0,1.93,0.2,1.93,1.53c0,1.12-0.66,1.6-2.08,1.6h-0.73v2.21h-0.95v-5.35H84.48z
		 M84.21,106.03c0.56,0,1.2-0.06,1.2-0.76c0-0.51-0.37-0.75-1.11-0.75h-0.71v1.5H84.21z"/>
</g>
<g>
	<g>
		<path class="st1" d="M10.24,113.18c1.02,0,1.68,0.47,1.68,1.34c0,0.57-0.35,1.03-0.94,1.17v0.01c0.76,0.07,1.21,0.57,1.21,1.33
			c0,0.74-0.62,1.49-1.91,1.49H8.61v-5.35H10.24z M10.27,115.52c0.6,0,1.06-0.35,1.06-0.93c0-0.52-0.41-0.91-1.11-0.91H9.15v1.84
			H10.27z M10.23,118.03c0.82,0,1.37-0.37,1.37-1.01c0-0.72-0.49-1.04-1.3-1.04H9.15v2.05H10.23z"/>
		<path class="st1" d="M17.43,113.18v0.5h-2.77v1.82h2.59v0.5h-2.59v2.03h2.86v0.5h-3.41v-5.35H17.43z"/>
		<path class="st1" d="M22.58,113.18v0.5h-2.68v1.82h2.49v0.5h-2.49v2.53h-0.54v-5.35H22.58z"/>
		<path class="st1" d="M29.52,115.85c0,1.6-1.19,2.81-2.79,2.81c-1.59,0-2.79-1.22-2.79-2.81s1.19-2.81,2.79-2.81
			C28.34,113.04,29.52,114.26,29.52,115.85z M26.73,118.16c1.32,0,2.2-1.03,2.2-2.31s-0.9-2.31-2.21-2.31c-1.28,0-2.19,1-2.19,2.31
			S25.44,118.16,26.73,118.16z"/>
		<path class="st1" d="M33.03,113.18c1.06,0,1.72,0.49,1.72,1.43c0,0.75-0.48,1.3-1.36,1.38l1.53,2.54h-0.66l-1.47-2.49h-0.91v2.49
			h-0.54v-5.35H33.03z M32.9,115.54c0.81,0,1.27-0.33,1.27-0.94c0-0.61-0.48-0.93-1.27-0.93h-1v1.87H32.9z"/>
		<path class="st1" d="M39.9,113.18v0.5h-2.77v1.82h2.59v0.5h-2.59v2.03h2.86v0.5h-3.41v-5.35H39.9z"/>
		<path class="st1" d="M49.03,113.76l-0.41,0.4c-0.37-0.39-0.87-0.62-1.53-0.62c-1.29,0-2.2,1-2.2,2.31s0.91,2.31,2.2,2.31
			c0.55,0,1.08-0.14,1.48-0.38V116H47.3v-0.5h1.82v2.62c-0.61,0.36-1.37,0.54-2.02,0.54c-1.61,0-2.79-1.22-2.79-2.81
			s1.19-2.81,2.79-2.81C47.94,113.04,48.55,113.28,49.03,113.76z"/>
		<path class="st1" d="M52.97,113.18c1.06,0,1.72,0.49,1.72,1.43c0,0.75-0.48,1.3-1.36,1.38l1.53,2.54h-0.67l-1.47-2.49h-0.91v2.49
			h-0.54v-5.35H52.97z M52.84,115.54c0.81,0,1.27-0.33,1.27-0.94c0-0.61-0.48-0.93-1.27-0.93h-1v1.87H52.84z"/>
		<path class="st1" d="M58.65,113.18l2.33,5.35h-0.63l-0.59-1.41h-2.73l-0.59,1.41H55.8l2.33-5.35H58.65z M57.23,116.62h2.32
			l-1.16-2.81L57.23,116.62z"/>
		<path class="st1" d="M64.15,113.18c1.61,0,2.82,1.12,2.82,2.67c0,1.57-1.24,2.67-2.78,2.67h-1.81v-5.35H64.15z M63.99,118.03
			c1.47,0,2.39-0.94,2.39-2.18c0-1.25-0.94-2.17-2.36-2.17h-1.1v4.35H63.99z"/>
		<path class="st1" d="M69.25,113.18v3.33c0,1.05,0.54,1.65,1.41,1.65s1.41-0.6,1.41-1.65v-3.33h0.54v3.38c0,1.23-0.66,2.1-1.96,2.1
			c-1.29,0-1.96-0.85-1.96-2.1v-3.38H69.25z"/>
		<path class="st1" d="M76.87,113.18l2.33,5.35h-0.63l-0.59-1.41h-2.73l-0.59,1.41h-0.63l2.33-5.35H76.87z M75.44,116.62h2.32
			l-1.16-2.81L75.44,116.62z"/>
		<path class="st1" d="M83.66,113.18v0.5h-1.79v4.85h-0.54v-4.85h-1.79v-0.5H83.66z"/>
		<path class="st1" d="M85.79,113.18v5.35h-0.54v-5.35H85.79z"/>
		<path class="st1" d="M93.21,115.85c0,1.6-1.19,2.81-2.79,2.81s-2.79-1.22-2.79-2.81s1.19-2.81,2.79-2.81
			C92.03,113.04,93.21,114.26,93.21,115.85z M90.42,118.16c1.32,0,2.2-1.03,2.2-2.31s-0.9-2.31-2.21-2.31c-1.28,0-2.19,1-2.19,2.31
			S89.13,118.16,90.42,118.16z"/>
		<path class="st1" d="M95.72,113.18l3.19,4.53h0.02v-4.53h0.54v5.35h-0.68l-3.19-4.58h-0.02v4.58h-0.54v-5.35H95.72z"/>
	</g>
</g>
</svg>
