<?xml version="1.0" encoding="utf-8"?>
<!-- Generator: Adobe Illustrator 26.0.3, SVG Export Plug-In . SVG Version: 6.00 Build 0)  -->
<svg version="1.1" id="Layer_1" xmlns="http://www.w3.org/2000/svg" xmlns:xlink="http://www.w3.org/1999/xlink" x="0px" y="0px"
	 viewBox="0 0 105.43 120.96" style="enable-background:new 0 0 105.43 120.96;" xml:space="preserve">
<style type="text/css">
	.st0{fill:#FFFFFF;}
	.st1{fill:#702E3E;}
	.st2{fill:#B89198;}
	.st3{fill:#945F69;}
	.st4{fill:#7F424F;}
</style>
<g>
	<path class="st0" d="M58.09,11.33c0.09,0.01,0.17,0.01,0.26,0.02c3.78,0.32,7.51,1.17,11.05,2.54c0.04,0.01,0.08,0.03,0.11,0.04
		c0.13,0.05,0.26,0.1,0.39,0.15c0.1,0.04,0.2,0.08,0.3,0.12c0.07,0.03,0.13,0.06,0.2,0.08c0.16,0.07,0.33,0.14,0.49,0.21
		c0.01,0,0.01,0.01,0.02,0.01c1.39,0.6,2.75,1.29,4.08,2.05c1,0.58,1.98,1.2,2.92,1.85l-6.16,8.48c-0.07-0.05-0.15-0.1-0.22-0.15
		c-0.05-0.04-0.11-0.07-0.16-0.11c-0.11-0.07-0.22-0.15-0.33-0.22c-0.08-0.05-0.16-0.1-0.23-0.15c-0.03-0.02-0.07-0.04-0.1-0.06
		c-0.24-0.15-0.48-0.29-0.72-0.44c-0.01-0.01-0.03-0.01-0.04-0.02c-1.11-0.65-2.26-1.23-3.45-1.73c-2.4-1.02-4.9-1.7-7.47-2.05
		c-0.09-0.01-0.19-0.03-0.28-0.04c0,0,0,0,0,0c-0.98-0.12-1.97-0.2-2.96-0.22V11.23c0.75,0.01,1.5,0.05,2.25,0.1
		C58.04,11.33,58.06,11.33,58.09,11.33"/>
	<path class="st1" d="M39.53,14.24c0.16-0.07,0.33-0.13,0.49-0.2c0.07-0.03,0.13-0.05,0.2-0.08c0.1-0.04,0.2-0.08,0.3-0.12
		c0.13-0.05,0.26-0.1,0.39-0.15c0.04-0.01,0.08-0.03,0.11-0.04c3.35-1.23,6.85-2,10.41-2.31c0.87-0.07,1.74-0.11,2.62-0.13V21.7
		c-1.09,0.03-2.17,0.11-3.25,0.26c-2.57,0.35-5.07,1.03-7.47,2.04c-1.18,0.5-2.31,1.07-3.4,1.71c-0.05,0.03-0.1,0.06-0.14,0.08
		c-0.11,0.06-0.21,0.13-0.32,0.19c-0.15,0.09-0.31,0.19-0.46,0.29c-0.05,0.03-0.11,0.07-0.16,0.1c-0.14,0.09-0.28,0.18-0.42,0.28
		c-0.03,0.02-0.06,0.04-0.09,0.06c-0.08,0.06-0.17,0.11-0.25,0.17l-6.16-8.48c0.94-0.65,1.91-1.27,2.92-1.85
		c1.51-0.87,3.08-1.64,4.68-2.31C39.52,14.25,39.53,14.25,39.53,14.24"/>
</g>
<g>
	<path class="st1" d="M38.48,59.58V49.07l-2.13,1.61l-1.43-2.5l3.91-2.86h2.82v14.26H38.48z"/>
	<path class="st1" d="M53.95,52.45c0,0.81-0.06,1.64-0.19,2.52c-0.13,0.87-0.36,1.67-0.71,2.41c-0.34,0.73-0.82,1.33-1.43,1.8
		c-0.61,0.47-1.4,0.7-2.37,0.7s-1.76-0.23-2.37-0.7c-0.61-0.47-1.09-1.07-1.43-1.8c-0.34-0.73-0.57-1.53-0.69-2.41
		c-0.12-0.87-0.18-1.71-0.18-2.52s0.06-1.64,0.18-2.52c0.12-0.87,0.35-1.67,0.69-2.41c0.34-0.73,0.82-1.33,1.43-1.8
		s1.4-0.71,2.37-0.71s1.76,0.24,2.37,0.71c0.61,0.47,1.09,1.07,1.43,1.8c0.34,0.73,0.58,1.53,0.71,2.41
		C53.88,50.81,53.95,51.65,53.95,52.45z M50.73,52.45c0-0.47-0.02-0.97-0.05-1.51c-0.03-0.54-0.1-1.03-0.21-1.49
		c-0.11-0.46-0.26-0.84-0.44-1.14c-0.19-0.3-0.44-0.45-0.77-0.45s-0.58,0.15-0.77,0.45c-0.19,0.3-0.34,0.68-0.44,1.14
		c-0.11,0.46-0.18,0.95-0.21,1.49c-0.03,0.54-0.05,1.04-0.05,1.51c0,0.48,0.02,0.99,0.05,1.53c0.03,0.54,0.1,1.03,0.21,1.48
		c0.11,0.45,0.25,0.83,0.44,1.13c0.19,0.3,0.44,0.45,0.77,0.45s0.58-0.15,0.77-0.45c0.19-0.3,0.34-0.68,0.44-1.13
		c0.11-0.45,0.18-0.94,0.21-1.48C50.71,53.45,50.73,52.94,50.73,52.45z"/>
	<path class="st1" d="M63.94,52.45c0,0.81-0.06,1.64-0.19,2.52c-0.13,0.87-0.36,1.67-0.71,2.41c-0.34,0.73-0.82,1.33-1.43,1.8
		c-0.61,0.47-1.4,0.7-2.37,0.7s-1.76-0.23-2.37-0.7c-0.61-0.47-1.09-1.07-1.43-1.8c-0.34-0.73-0.57-1.53-0.7-2.41
		s-0.18-1.71-0.18-2.52s0.06-1.64,0.18-2.52s0.35-1.67,0.7-2.41c0.34-0.73,0.82-1.33,1.43-1.8c0.61-0.47,1.4-0.71,2.37-0.71
		s1.76,0.24,2.37,0.71c0.61,0.47,1.09,1.07,1.43,1.8c0.34,0.73,0.58,1.53,0.71,2.41C63.87,50.81,63.94,51.65,63.94,52.45z
		 M60.72,52.45c0-0.47-0.02-0.97-0.05-1.51c-0.03-0.54-0.1-1.03-0.21-1.49c-0.11-0.46-0.26-0.84-0.44-1.14
		c-0.19-0.3-0.44-0.45-0.77-0.45s-0.58,0.15-0.76,0.45c-0.19,0.3-0.34,0.68-0.44,1.14c-0.11,0.46-0.18,0.95-0.21,1.49
		c-0.03,0.54-0.05,1.04-0.05,1.51c0,0.48,0.02,0.99,0.05,1.53s0.1,1.03,0.21,1.48c0.11,0.45,0.25,0.83,0.44,1.13
		c0.19,0.3,0.44,0.45,0.76,0.45s0.58-0.15,0.77-0.45c0.19-0.3,0.33-0.68,0.44-1.13c0.11-0.45,0.18-0.94,0.21-1.48
		S60.72,52.94,60.72,52.45z"/>
	<path class="st1" d="M70.18,48.89c0,0.55-0.07,1.05-0.2,1.51c-0.13,0.46-0.33,0.85-0.57,1.19c-0.25,0.34-0.55,0.6-0.91,0.79
		c-0.36,0.19-0.76,0.28-1.22,0.28c-0.44,0-0.84-0.09-1.2-0.28c-0.36-0.19-0.66-0.45-0.91-0.79c-0.25-0.33-0.44-0.73-0.57-1.19
		c-0.13-0.46-0.2-0.96-0.2-1.51s0.07-1.06,0.2-1.52c0.13-0.46,0.33-0.87,0.57-1.21c0.25-0.34,0.55-0.61,0.91-0.8
		c0.36-0.19,0.75-0.28,1.2-0.28c0.46,0,0.86,0.09,1.22,0.28c0.36,0.19,0.66,0.45,0.91,0.8c0.25,0.34,0.44,0.75,0.57,1.21
		C70.11,47.83,70.18,48.34,70.18,48.89z M68.25,48.87c0-0.56-0.08-1.03-0.23-1.4c-0.16-0.37-0.4-0.55-0.74-0.55
		c-0.31,0-0.54,0.19-0.7,0.55s-0.23,0.84-0.23,1.4c0,0.54,0.08,1,0.23,1.38s0.39,0.57,0.7,0.57c0.33,0,0.58-0.19,0.74-0.57
		C68.17,49.87,68.25,49.41,68.25,48.87z M68.69,60.01l-1.51-0.54l6.1-14.74l1.49,0.58L68.69,60.01z M77.49,56.12
		c0,0.55-0.07,1.05-0.2,1.51c-0.13,0.46-0.33,0.85-0.57,1.19c-0.25,0.34-0.55,0.6-0.91,0.79c-0.36,0.19-0.76,0.28-1.22,0.28
		c-0.44,0-0.84-0.09-1.2-0.28c-0.36-0.19-0.66-0.45-0.91-0.79c-0.25-0.33-0.44-0.73-0.57-1.19c-0.13-0.46-0.2-0.96-0.2-1.51
		s0.07-1.06,0.2-1.52c0.13-0.46,0.33-0.86,0.57-1.2c0.25-0.33,0.55-0.6,0.91-0.79c0.36-0.19,0.76-0.28,1.2-0.28
		c0.46,0,0.86,0.09,1.22,0.28c0.36,0.19,0.66,0.45,0.91,0.79c0.25,0.34,0.44,0.74,0.57,1.2C77.43,55.06,77.49,55.57,77.49,56.12z
		 M75.54,56.1c0-0.55-0.07-1.01-0.22-1.39c-0.15-0.38-0.39-0.56-0.73-0.56c-0.31,0-0.54,0.19-0.69,0.56s-0.23,0.84-0.23,1.39
		s0.08,1.01,0.23,1.39s0.39,0.56,0.69,0.56c0.34,0,0.58-0.19,0.73-0.56C75.47,57.11,75.54,56.65,75.54,56.1z"/>
</g>
<g>
	<path class="st2" d="M89.57,71.01c-1.21,2.09-2.6,4.06-4.15,5.88c-0.06,0.06-0.11,0.13-0.17,0.19c-0.04,0.04-0.07,0.08-0.11,0.13
		c-0.61,0.7-1.25,1.39-1.91,2.05c-1.32,1.32-2.71,2.53-4.18,3.64l-6.16-8.48c0.14-0.11,0.29-0.22,0.43-0.33
		c0.05-0.04,0.1-0.08,0.15-0.12c0.1-0.08,0.19-0.16,0.29-0.23c1.76-1.45,3.35-3.1,4.73-4.94c0.32-0.43,0.63-0.86,0.93-1.31
		c0.01-0.02,0.02-0.03,0.03-0.05c0.11-0.17,0.23-0.34,0.34-0.51c0.03-0.05,0.07-0.11,0.1-0.16c0.09-0.14,0.17-0.28,0.26-0.42
		c0.05-0.08,0.1-0.17,0.15-0.25c0.07-0.11,0.13-0.22,0.2-0.33c0.06-0.11,0.13-0.23,0.19-0.34c0.05-0.09,0.1-0.17,0.14-0.26
		c0.08-0.14,0.15-0.29,0.23-0.43c0.03-0.06,0.06-0.11,0.09-0.17c0.09-0.18,0.18-0.36,0.27-0.55c0.01-0.02,0.02-0.04,0.03-0.06
		c0.24-0.48,0.46-0.97,0.67-1.46c0.23-0.55,0.45-1.11,0.65-1.67l9.96,3.24c-0.31,0.9-0.65,1.78-1.02,2.65
		C91.09,68.18,90.37,69.61,89.57,71.01"/>
	<path class="st3" d="M70.29,87.91c-0.16,0.07-0.33,0.13-0.49,0.2c-0.07,0.03-0.13,0.05-0.2,0.08c-0.1,0.04-0.2,0.08-0.3,0.12
		c-0.13,0.05-0.26,0.1-0.39,0.15c-0.04,0.01-0.07,0.03-0.11,0.04c-3.35,1.23-6.85,2-10.41,2.31c-0.87,0.07-1.74,0.11-2.62,0.13
		V80.45c1.09-0.03,2.17-0.11,3.25-0.26c2.57-0.35,5.07-1.03,7.47-2.04c1.18-0.5,2.31-1.07,3.4-1.71c0.05-0.03,0.1-0.06,0.15-0.08
		c0.11-0.06,0.21-0.13,0.32-0.19c0.15-0.09,0.31-0.19,0.46-0.28c0.05-0.03,0.11-0.07,0.16-0.1c0.14-0.09,0.28-0.18,0.42-0.28
		c0.03-0.02,0.06-0.04,0.09-0.06c0.08-0.06,0.17-0.11,0.25-0.17l6.16,8.48c-0.94,0.65-1.91,1.27-2.92,1.85
		c-1.51,0.87-3.07,1.64-4.68,2.31C70.3,87.9,70.29,87.91,70.29,87.91"/>
	<path class="st3" d="M52.01,90.82c-0.08-0.01-0.17-0.01-0.25-0.02c-3.79-0.32-7.52-1.18-11.06-2.54c-0.03-0.01-0.06-0.02-0.09-0.03
		c-0.14-0.05-0.28-0.11-0.41-0.16c-0.09-0.04-0.18-0.07-0.27-0.11c-0.08-0.03-0.15-0.06-0.23-0.1c-0.15-0.06-0.31-0.13-0.46-0.19
		c-0.02-0.01-0.03-0.01-0.05-0.02c-1.39-0.6-2.74-1.29-4.06-2.05c-1-0.58-1.98-1.2-2.92-1.85l6.16-8.48
		c0.07,0.05,0.14,0.1,0.22,0.15c0.06,0.04,0.12,0.08,0.18,0.12c0.1,0.07,0.2,0.13,0.3,0.2c0.36,0.23,0.72,0.46,1.09,0.67l0,0
		c1.11,0.65,2.27,1.24,3.46,1.74c2.41,1.02,4.91,1.7,7.48,2.05c0.09,0.01,0.17,0.02,0.25,0.03c0.01,0,0.03,0,0.04,0
		c0.97,0.12,1.96,0.2,2.94,0.22v10.48c-0.75-0.01-1.5-0.05-2.24-0.1C52.06,90.82,52.03,90.82,52.01,90.82"/>
	<path class="st4" d="M26.87,79.26c-0.65-0.65-1.28-1.32-1.88-2.01c-0.06-0.06-0.11-0.13-0.17-0.19c-0.04-0.05-0.08-0.1-0.13-0.15
		c-1.55-1.83-2.95-3.8-4.16-5.9c-0.81-1.39-1.52-2.83-2.15-4.29c-0.37-0.87-0.71-1.75-1.01-2.64l9.96-3.24
		c0.2,0.56,0.42,1.12,0.65,1.68c0.21,0.49,0.43,0.98,0.67,1.46c0.01,0.02,0.02,0.04,0.03,0.06c0.09,0.18,0.18,0.37,0.27,0.55
		c0.03,0.06,0.06,0.11,0.09,0.17c0.08,0.15,0.15,0.29,0.23,0.43c0.05,0.08,0.09,0.17,0.14,0.26c0.06,0.11,0.13,0.23,0.19,0.34
		c0.06,0.11,0.13,0.22,0.2,0.33c0.05,0.08,0.1,0.17,0.15,0.25c0.08,0.14,0.17,0.28,0.26,0.42c0.03,0.05,0.07,0.11,0.1,0.16
		c0.11,0.17,0.22,0.34,0.34,0.51c0.01,0.02,0.02,0.03,0.03,0.05c0.3,0.44,0.61,0.88,0.93,1.31c1.4,1.86,3.01,3.53,4.8,4.99
		c0.06,0.05,0.12,0.1,0.19,0.15c0.07,0.06,0.14,0.11,0.21,0.16c0.13,0.1,0.26,0.21,0.4,0.31l-6.16,8.48
		C29.58,81.79,28.18,80.58,26.87,79.26"/>
	<path class="st1" d="M20.53,31.15c1.21-2.09,2.6-4.06,4.15-5.89c0.05-0.06,0.1-0.12,0.15-0.18c0.04-0.05,0.09-0.1,0.13-0.15
		c0.61-0.7,1.24-1.38,1.9-2.04c1.32-1.32,2.71-2.53,4.18-3.64l6.16,8.48c-0.14,0.11-0.28,0.22-0.42,0.33
		c-0.05,0.04-0.1,0.08-0.15,0.12c-0.09,0.07-0.18,0.15-0.27,0.22c-1.77,1.45-3.35,3.1-4.74,4.94c-0.32,0.43-0.63,0.86-0.93,1.31
		c-0.01,0.02-0.02,0.03-0.03,0.05c-0.11,0.17-0.23,0.34-0.33,0.51c-0.03,0.05-0.07,0.11-0.1,0.16c-0.09,0.14-0.17,0.28-0.26,0.42
		c-0.05,0.08-0.1,0.17-0.15,0.25c-0.07,0.11-0.13,0.22-0.2,0.33c-0.07,0.11-0.13,0.23-0.19,0.34c-0.05,0.08-0.09,0.17-0.14,0.25
		c-0.08,0.14-0.15,0.29-0.23,0.43c-0.03,0.06-0.06,0.11-0.09,0.17c-0.09,0.18-0.19,0.36-0.28,0.55c-0.01,0.02-0.02,0.04-0.03,0.06
		c-0.24,0.48-0.46,0.97-0.67,1.46c-0.23,0.55-0.45,1.11-0.65,1.67l-9.96-3.24c0.31-0.9,0.65-1.78,1.01-2.64
		C19.01,33.97,19.73,32.54,20.53,31.15"/>
	<path class="st0" d="M83.23,22.89c0.65,0.65,1.28,1.33,1.88,2.02c0.05,0.06,0.11,0.12,0.16,0.18c0.04,0.05,0.09,0.1,0.13,0.16
		c1.55,1.83,2.95,3.8,4.16,5.9c0.81,1.39,1.52,2.82,2.15,4.28c0.37,0.87,0.71,1.75,1.02,2.65l-9.96,3.24
		c-0.2-0.56-0.42-1.12-0.65-1.67c-0.21-0.49-0.43-0.98-0.67-1.46c-0.01-0.02-0.02-0.04-0.03-0.06c-0.09-0.18-0.18-0.37-0.27-0.55
		c-0.03-0.06-0.06-0.11-0.09-0.17c-0.08-0.15-0.15-0.29-0.23-0.43c-0.05-0.09-0.09-0.17-0.14-0.26c-0.06-0.11-0.13-0.23-0.19-0.34
		c-0.06-0.11-0.13-0.22-0.2-0.33c-0.05-0.08-0.1-0.17-0.15-0.25c-0.08-0.14-0.17-0.28-0.26-0.42c-0.03-0.05-0.07-0.11-0.1-0.16
		c-0.11-0.17-0.22-0.34-0.34-0.51c-0.01-0.02-0.02-0.03-0.03-0.05c-0.3-0.44-0.61-0.88-0.93-1.31c-1.4-1.85-3-3.52-4.79-4.98
		c-0.07-0.06-0.14-0.11-0.21-0.17c-0.06-0.05-0.13-0.1-0.19-0.15c-0.13-0.11-0.27-0.21-0.41-0.32l6.16-8.48
		C80.52,20.36,81.92,21.58,83.23,22.89"/>
	<path class="st2" d="M94.91,51.08c0,1.61-0.1,3.2-0.28,4.78c-0.23,1.86-0.58,3.7-1.07,5.54c-0.12,0.44-0.24,0.88-0.38,1.32
		l-9.96-3.24c0.04-0.15,0.09-0.3,0.13-0.45c0-0.02,0.01-0.03,0.01-0.05c0.03-0.1,0.05-0.19,0.08-0.29c0.03-0.1,0.05-0.19,0.08-0.29
		c0-0.02,0.01-0.03,0.01-0.05c0.3-1.19,0.53-2.41,0.69-3.64c0.12-1,0.2-2,0.22-3c0-0.02,0-0.03,0-0.05c0-0.09,0-0.18,0-0.27
		c0-0.04,0-0.08,0-0.12c0-0.06,0-0.13,0-0.19c0-0.06,0-0.13,0-0.19c0-0.04,0-0.08,0-0.12c0-0.09,0-0.18,0-0.27c0-0.02,0-0.03,0-0.05
		c-0.02-1-0.09-2-0.22-3c-0.15-1.23-0.38-2.45-0.69-3.64c0-0.01-0.01-0.03-0.01-0.04c-0.03-0.1-0.05-0.2-0.08-0.3
		c-0.03-0.09-0.05-0.19-0.08-0.28c0-0.02-0.01-0.04-0.01-0.06c-0.04-0.15-0.09-0.3-0.13-0.45l9.96-3.24
		c0.13,0.44,0.26,0.87,0.38,1.32c0.49,1.83,0.85,3.68,1.07,5.54C94.81,47.87,94.91,49.47,94.91,51.08"/>
	<path class="st4" d="M26.75,43.13c-0.01,0.02-0.01,0.04-0.02,0.06c-0.03,0.09-0.05,0.19-0.08,0.28c-0.03,0.1-0.05,0.2-0.08,0.3
		c0,0.01-0.01,0.03-0.01,0.04c-0.3,1.19-0.53,2.41-0.69,3.64c-0.12,1-0.2,2-0.22,3c0,0.02,0,0.03,0,0.05c0,0.09,0,0.18,0,0.27
		c0,0.04,0,0.08,0,0.12c0,0.06,0,0.13,0,0.19c0,0.06,0,0.13,0,0.19c0,0.04,0,0.08,0,0.12c0,0.09,0,0.18,0,0.27c0,0.02,0,0.03,0,0.05
		c0.02,1,0.09,2,0.22,3c0.15,1.23,0.38,2.44,0.69,3.64c0,0.02,0.01,0.03,0.01,0.05c0.02,0.1,0.05,0.19,0.08,0.29
		c0.03,0.1,0.05,0.19,0.08,0.29c0,0.02,0.01,0.03,0.01,0.05c0.04,0.15,0.09,0.3,0.13,0.45l-9.96,3.24
		c-0.13-0.44-0.26-0.87-0.38-1.32c-0.49-1.83-0.85-3.68-1.08-5.54c-0.19-1.58-0.28-3.17-0.28-4.78c0-1.61,0.09-3.2,0.28-4.78
		c0.23-1.86,0.59-3.71,1.08-5.54c0.12-0.44,0.24-0.88,0.38-1.32l9.96,3.24C26.84,42.83,26.8,42.98,26.75,43.13"/>
</g>
<g>
	<path class="st1" d="M12,99.38l-0.69,0.73c-0.21-0.29-0.57-0.42-0.94-0.42c-0.54,0-0.88,0.27-0.88,0.69c0,0.36,0.3,0.56,0.83,0.73
		c0.85,0.26,1.71,0.54,1.71,1.64s-0.87,1.71-1.92,1.71c-0.76,0-1.38-0.23-1.79-0.72l0.72-0.7c0.23,0.36,0.63,0.56,1.06,0.56
		c0.51,0,0.94-0.3,0.94-0.73c0-0.4-0.27-0.61-0.96-0.82c-0.96-0.29-1.58-0.62-1.58-1.59s0.81-1.62,1.97-1.62
		C11.08,98.83,11.62,99.03,12,99.38z"/>
	<path class="st1" d="M14.7,98.97v3.38c0,0.49,0.28,1.2,1.2,1.2s1.2-0.71,1.2-1.2v-3.38h0.95v3.42c0,1.05-0.74,2.06-2.15,2.06
		c-1.42,0-2.15-1.02-2.15-2.06v-3.42H14.7z"/>
	<path class="st1" d="M21.45,98.97l1.43,3.75l1.44-3.75h1.44v5.35h-0.91v-4.44h-0.02l-1.62,4.44h-0.67l-1.62-4.44h-0.02v4.44H20
		v-5.35H21.45z"/>
	<path class="st1" d="M29.2,98.97l1.43,3.75l1.44-3.75h1.44v5.35H32.6v-4.44h-0.02l-1.62,4.44H30.3l-1.62-4.44h-0.02v4.44h-0.91
		v-5.35H29.2z"/>
	<path class="st1" d="M39.02,98.97v0.86h-2.59v1.31h2.45V102h-2.45v1.45h2.73v0.86h-3.68v-5.35H39.02z"/>
	<path class="st1" d="M42.73,98.97c1.03,0,1.96,0.36,1.96,1.53c0,0.8-0.48,1.34-1.24,1.45l1.42,2.36h-1.15l-1.24-2.27H41.8v2.27
		h-0.95v-5.35H42.73z M42.58,101.23c0.54,0,1.12-0.08,1.12-0.74c0-0.61-0.55-0.71-1.05-0.71H41.8v1.45H42.58z"/>
	<path class="st1" d="M50.27,98.97v5.35h-0.95v-5.35H50.27z"/>
	<path class="st1" d="M53.46,98.97l2.59,3.97h0.01v-3.97h0.95v5.35h-1.21l-2.64-4.1h-0.02v4.1H52.2v-5.35H53.46z"/>
	<path class="st1" d="M62.65,98.97v0.86h-1.64v4.49h-0.95v-4.49h-1.64v-0.86H62.65z"/>
	<path class="st1" d="M67.6,98.97v0.86h-2.59v1.31h2.46V102h-2.46v1.45h2.73v0.86h-3.68v-5.35H67.6z"/>
	<path class="st1" d="M71.3,98.97c1.03,0,1.96,0.36,1.96,1.53c0,0.8-0.48,1.34-1.24,1.45l1.42,2.36H72.3l-1.24-2.27h-0.69v2.27
		h-0.95v-5.35H71.3z M71.15,101.23c0.54,0,1.12-0.08,1.12-0.74c0-0.61-0.55-0.71-1.05-0.71h-0.85v1.45H71.15z"/>
	<path class="st1" d="M76.19,98.97l2.59,3.97h0.02v-3.97h0.95v5.35h-1.21l-2.64-4.1h-0.02v4.1h-0.95v-5.35H76.19z"/>
	<path class="st1" d="M85.01,99.38l-0.69,0.73c-0.21-0.29-0.57-0.42-0.94-0.42c-0.54,0-0.88,0.27-0.88,0.69
		c0,0.36,0.3,0.56,0.83,0.73c0.85,0.26,1.71,0.54,1.71,1.64s-0.87,1.71-1.92,1.71c-0.76,0-1.38-0.23-1.79-0.72l0.72-0.7
		c0.23,0.36,0.63,0.56,1.06,0.56c0.51,0,0.94-0.3,0.94-0.73c0-0.4-0.27-0.61-0.96-0.82c-0.96-0.29-1.58-0.62-1.58-1.59
		s0.81-1.62,1.97-1.62C84.09,98.83,84.63,99.03,85.01,99.38z"/>
	<path class="st1" d="M87.73,98.97v2.13h2.5v-2.13h0.95v5.35h-0.95v-2.36h-2.5v2.36h-0.95v-5.35H87.73z"/>
	<path class="st1" d="M94.06,98.97v5.35h-0.95v-5.35H94.06z"/>
	<path class="st1" d="M97.82,98.97c0.69,0,1.93,0.2,1.93,1.53c0,1.12-0.66,1.6-2.08,1.6h-0.73v2.21h-0.95v-5.35H97.82z
		 M97.56,101.29c0.56,0,1.2-0.06,1.2-0.76c0-0.51-0.37-0.75-1.11-0.75h-0.71v1.5H97.56z"/>
</g>
<g>
	<g>
		<path class="st1" d="M31.1,108.44c1.06,0,1.72,0.49,1.72,1.43s-0.66,1.43-1.72,1.43h-1.05v2.49h-0.54v-5.35H31.1z M30.97,110.81
			c0.79,0,1.27-0.33,1.27-0.94c0-0.63-0.49-0.93-1.27-0.93h-0.91v1.87H30.97z"/>
		<path class="st1" d="M35.14,108.44v4.85h2.49v0.5H34.6v-5.35H35.14z"/>
		<path class="st1" d="M41.26,108.44l2.33,5.35h-0.63l-0.59-1.41h-2.73l-0.59,1.41H38.4l2.33-5.35H41.26z M39.83,111.89h2.32
			L41,109.08L39.83,111.89z"/>
		<path class="st1" d="M49.34,109.15l-0.48,0.36c-0.25-0.4-0.88-0.7-1.38-0.7c-1.3,0-2.2,1.02-2.2,2.31c0,1.31,0.91,2.31,2.2,2.31
			c0.67,0,1.18-0.26,1.53-0.8l0.45,0.32c-0.39,0.6-1.16,0.98-1.98,0.98c-1.59,0-2.79-1.22-2.79-2.81c0-1.59,1.19-2.81,2.79-2.81
			C48.24,108.31,48.91,108.61,49.34,109.15z"/>
		<path class="st1" d="M54.45,108.44v0.5h-2.77v1.82h2.59v0.5h-2.59v2.03h2.86v0.5h-3.41v-5.35H54.45z"/>
		<path class="st1" d="M57.2,108.44l1.8,4.35l1.81-4.35h0.83v5.35H61.1v-4.62h-0.01l-1.93,4.62h-0.29l-1.93-4.62h-0.01v4.62h-0.54
			v-5.35H57.2z"/>
		<path class="st1" d="M67.16,108.44v0.5h-2.77v1.82h2.59v0.5h-2.59v2.03h2.86v0.5h-3.41v-5.35H67.16z"/>
		<path class="st1" d="M69.76,108.44l3.19,4.53h0.01v-4.53h0.54v5.35h-0.68l-3.19-4.58h-0.01v4.58h-0.54v-5.35H69.76z"/>
		<path class="st1" d="M79.21,108.44v0.5h-1.79v4.85h-0.54v-4.85h-1.79v-0.5H79.21z"/>
	</g>
</g>
</svg>
