<?xml version="1.0" encoding="utf-8"?>
<!-- Generator: Adobe Illustrator 26.0.3, SVG Export Plug-In . SVG Version: 6.00 Build 0)  -->
<svg version="1.1" id="Layer_1" xmlns="http://www.w3.org/2000/svg" xmlns:xlink="http://www.w3.org/1999/xlink" x="0px" y="0px"
	 viewBox="0 0 116.88 87.12" style="enable-background:new 0 0 116.88 87.12;" xml:space="preserve">
<style type="text/css">
	.st0{fill:#945F69;}
	.st1{fill:#FFFFFF;}
	.st2{fill:#702E3E;}
</style>
<g>
	<path class="st0" d="M75.3,16.66c0,2.12-1.72,3.83-3.83,3.83c-2.12,0-3.83-1.72-3.83-3.83c0-2.12,1.71-3.83,3.83-3.83
		C73.58,12.83,75.3,14.55,75.3,16.66"/>
	<path class="st0" d="M86.33,16.66c0,2.12-1.72,3.83-3.83,3.83c-2.12,0-3.83-1.72-3.83-3.83c0-2.12,1.71-3.83,3.83-3.83
		C84.61,12.83,86.33,14.55,86.33,16.66"/>
	<path class="st0" d="M97.36,16.66c0,2.12-1.72,3.83-3.83,3.83c-2.12,0-3.83-1.72-3.83-3.83c0-2.12,1.71-3.83,3.83-3.83
		C95.64,12.83,97.36,14.55,97.36,16.66"/>
	<path class="st0" d="M108.38,16.66c0,2.12-1.72,3.83-3.83,3.83c-2.12,0-3.83-1.72-3.83-3.83c0-2.12,1.71-3.83,3.83-3.83
		C106.67,12.83,108.38,14.55,108.38,16.66"/>
	<path class="st0" d="M75.3,27.5c0,2.12-1.72,3.83-3.83,3.83c-2.12,0-3.83-1.72-3.83-3.83c0-2.12,1.71-3.83,3.83-3.83
		C73.58,23.67,75.3,25.38,75.3,27.5"/>
	<path class="st0" d="M86.33,27.5c0,2.12-1.72,3.83-3.83,3.83c-2.12,0-3.83-1.72-3.83-3.83c0-2.12,1.71-3.83,3.83-3.83
		C84.61,23.67,86.33,25.38,86.33,27.5"/>
	<path class="st0" d="M97.36,27.62c0,2.12-1.72,3.83-3.83,3.83c-2.12,0-3.83-1.72-3.83-3.83c0-2.12,1.71-3.83,3.83-3.83
		C95.64,23.79,97.36,25.51,97.36,27.62"/>
	<path class="st1" d="M75.3,38.34c0,2.12-1.72,3.83-3.83,3.83c-2.12,0-3.83-1.72-3.83-3.83c0-2.12,1.71-3.83,3.83-3.83
		C73.58,34.51,75.3,36.22,75.3,38.34"/>
</g>
<g>
	<path class="st2" d="M11.73,54.08v5.35h-0.95v-5.35H11.73z"/>
	<path class="st2" d="M14.92,54.08l2.59,3.97h0.02v-3.97h0.95v5.35h-1.21l-2.64-4.1h-0.02v4.1h-0.95v-5.35H14.92z"/>
	<path class="st2" d="M23.74,54.49l-0.69,0.73c-0.21-0.29-0.57-0.42-0.94-0.42c-0.54,0-0.88,0.27-0.88,0.69
		c0,0.36,0.3,0.56,0.83,0.73c0.85,0.26,1.71,0.54,1.71,1.64s-0.87,1.71-1.92,1.71c-0.76,0-1.38-0.23-1.79-0.72l0.72-0.7
		c0.23,0.36,0.63,0.56,1.06,0.56c0.51,0,0.94-0.3,0.94-0.73c0-0.4-0.27-0.61-0.96-0.82c-0.96-0.29-1.58-0.62-1.58-1.59
		s0.81-1.62,1.97-1.62C22.82,53.94,23.36,54.14,23.74,54.49z"/>
	<path class="st2" d="M29.2,54.08v0.86h-1.64v4.49h-0.95v-4.49h-1.64v-0.86H29.2z"/>
	<path class="st2" d="M32.49,54.08c1.03,0,1.96,0.36,1.96,1.53c0,0.8-0.48,1.34-1.24,1.45l1.42,2.36h-1.15l-1.24-2.27h-0.69v2.27
		H30.6v-5.35H32.49z M32.34,56.34c0.54,0,1.12-0.08,1.12-0.74c0-0.61-0.55-0.71-1.05-0.71h-0.85v1.45H32.34z"/>
	<path class="st2" d="M37.04,54.08v3.38c0,0.49,0.28,1.2,1.2,1.2s1.2-0.71,1.2-1.2v-3.38h0.95v3.42c0,1.05-0.74,2.06-2.15,2.06
		c-1.42,0-2.15-1.02-2.15-2.06v-3.42H37.04z"/>
	<path class="st2" d="M46.73,54.79l-0.74,0.54c-0.31-0.33-0.66-0.53-1.13-0.53c-1.1,0-1.84,0.85-1.84,1.91
		c0,1.1,0.71,1.99,1.84,1.99c0.51,0,0.9-0.26,1.2-0.65l0.79,0.56c-0.46,0.65-1.21,0.95-1.99,0.95c-1.65,0-2.83-1.12-2.83-2.79
		c0-1.66,1.12-2.83,2.83-2.83C45.62,53.94,46.22,54.21,46.73,54.79z"/>
	<path class="st2" d="M51.92,54.08v0.86h-1.64v4.49h-0.95v-4.49h-1.64v-0.86H51.92z"/>
	<path class="st2" d="M55.85,59.56c-1.65,0-2.81-1.13-2.81-2.79c0-1.54,1-2.83,2.86-2.83c1.69,0,2.81,1.13,2.81,2.8
		C58.71,58.42,57.5,59.56,55.85,59.56z M55.87,58.7c1.16,0,1.84-0.9,1.84-1.99c0-1.09-0.75-1.91-1.85-1.91
		c-1.09,0-1.83,0.85-1.83,1.91C54.04,57.81,54.73,58.7,55.87,58.7z"/>
	<path class="st2" d="M62.25,54.08c1.03,0,1.96,0.36,1.96,1.53c0,0.8-0.48,1.34-1.24,1.45l1.42,2.36h-1.15l-1.24-2.27h-0.7v2.27
		h-0.95v-5.35H62.25z M62.1,56.34c0.54,0,1.12-0.08,1.12-0.74c0-0.61-0.55-0.71-1.05-0.71h-0.85v1.45H62.1z"/>
	<path class="st2" d="M67,56.32c0,0.33-0.27,0.59-0.6,0.59c-0.32,0-0.6-0.26-0.6-0.57c0-0.33,0.28-0.59,0.6-0.59
		C66.71,55.75,67,55.98,67,56.32z M67,58.88c0,0.34-0.28,0.59-0.6,0.59c-0.32,0-0.6-0.25-0.6-0.57c0-0.33,0.28-0.59,0.6-0.59
		C66.72,58.31,67,58.55,67,58.88z"/>
	<path class="st2" d="M72.18,54.49l-0.69,0.73c-0.21-0.29-0.57-0.42-0.94-0.42c-0.54,0-0.88,0.27-0.88,0.69
		c0,0.36,0.3,0.56,0.83,0.73c0.85,0.26,1.71,0.54,1.71,1.64s-0.87,1.71-1.92,1.71c-0.76,0-1.38-0.23-1.79-0.72l0.72-0.7
		c0.23,0.36,0.63,0.56,1.06,0.56c0.51,0,0.94-0.3,0.94-0.73c0-0.4-0.27-0.61-0.96-0.82c-0.96-0.29-1.58-0.62-1.58-1.59
		s0.81-1.62,1.97-1.62C71.26,53.94,71.81,54.14,72.18,54.49z"/>
	<path class="st2" d="M77.64,54.08v0.86H76v4.49h-0.95v-4.49h-1.64v-0.86H77.64z"/>
	<path class="st2" d="M79.98,54.08v3.38c0,0.49,0.28,1.2,1.2,1.2c0.92,0,1.2-0.71,1.2-1.2v-3.38h0.95v3.42
		c0,1.05-0.74,2.06-2.15,2.06c-1.42,0-2.15-1.02-2.15-2.06v-3.42H79.98z"/>
	<path class="st2" d="M87.38,54.08c1.38,0,2.7,0.88,2.7,2.67c0,1.9-1.65,2.67-2.81,2.67h-2.02v-5.35H87.38z M86.95,58.57
		c1.14,0,2.13-0.51,2.13-1.81s-0.84-1.81-2-1.81H86.2v3.62H86.95z"/>
	<path class="st2" d="M95.28,54.08v0.86h-2.59v1.31h2.45v0.86h-2.45v1.45h2.73v0.86h-3.68v-5.35H95.28z"/>
	<path class="st2" d="M98.37,54.08l2.59,3.97h0.02v-3.97h0.95v5.35h-1.21l-2.64-4.1h-0.02v4.1h-0.95v-5.35H98.37z"/>
	<path class="st2" d="M107.56,54.08v0.86h-1.64v4.49h-0.95v-4.49h-1.64v-0.86H107.56z"/>
</g>
<g>
	<path class="st2" d="M28.1,63.55c1.06,0,1.72,0.49,1.72,1.43c0,0.75-0.48,1.3-1.36,1.38l1.53,2.54h-0.66l-1.47-2.49h-0.91v2.49
		h-0.54v-5.35H28.1z M27.96,65.92c0.81,0,1.27-0.33,1.27-0.94c0-0.61-0.48-0.93-1.27-0.93h-1v1.87H27.96z"/>
	<path class="st2" d="M33.78,63.55l2.33,5.35h-0.63l-0.59-1.41h-2.73l-0.59,1.41h-0.63l2.33-5.35H33.78z M32.35,67h2.32l-1.16-2.81
		L32.35,67z"/>
	<path class="st2" d="M40.57,63.55v0.5h-1.79v4.85h-0.54v-4.85h-1.79v-0.5H40.57z"/>
	<path class="st2" d="M42.7,63.55v5.35h-0.54v-5.35H42.7z"/>
	<path class="st2" d="M50.12,66.23c0,1.6-1.19,2.81-2.79,2.81c-1.59,0-2.79-1.22-2.79-2.81s1.19-2.81,2.79-2.81
		C48.94,63.42,50.12,64.63,50.12,66.23z M47.33,68.54c1.32,0,2.2-1.03,2.2-2.31s-0.9-2.31-2.21-2.31c-1.28,0-2.19,1-2.19,2.31
		S46.04,68.54,47.33,68.54z"/>
	<path class="st2" d="M55.35,63.55v5.35H54.8v-5.35H55.35z"/>
	<path class="st2" d="M58.23,63.55l3.19,4.53h0.02v-4.53h0.54v5.35H61.3l-3.19-4.58H58.1v4.58h-0.54v-5.35H58.23z"/>
	<path class="st2" d="M67.48,63.55v3.33c0,1.05,0.54,1.65,1.41,1.65s1.41-0.6,1.41-1.65v-3.33h0.54v3.38c0,1.23-0.66,2.1-1.96,2.1
		c-1.29,0-1.96-0.85-1.96-2.1v-3.38H67.48z"/>
	<path class="st2" d="M74.56,63.55c1.07,0,1.72,0.49,1.72,1.43s-0.66,1.43-1.72,1.43h-1.05v2.49h-0.54v-5.35H74.56z M74.42,65.92
		c0.79,0,1.27-0.33,1.27-0.94c0-0.63-0.49-0.93-1.27-0.93h-0.91v1.87H74.42z"/>
	<path class="st2" d="M79.65,63.55c1.06,0,1.72,0.49,1.72,1.43s-0.66,1.43-1.72,1.43H78.6v2.49h-0.54v-5.35H79.65z M79.51,65.92
		c0.79,0,1.27-0.33,1.27-0.94c0-0.63-0.49-0.93-1.27-0.93H78.6v1.87H79.51z"/>
	<path class="st2" d="M86.46,63.55v0.5h-2.77v1.82h2.59v0.5h-2.59v2.03h2.86v0.5h-3.41v-5.35H86.46z"/>
	<path class="st2" d="M90.06,63.55c1.06,0,1.72,0.49,1.72,1.43c0,0.75-0.48,1.3-1.36,1.38l1.53,2.54h-0.66l-1.47-2.49h-0.91v2.49
		h-0.54v-5.35H90.06z M89.92,65.92c0.81,0,1.27-0.33,1.27-0.94c0-0.61-0.48-0.93-1.27-0.93h-1v1.87H89.92z"/>
</g>
<g>
	<g>
		<path class="st2" d="M21.27,73.03c1.61,0,2.82,1.12,2.82,2.67c0,1.57-1.24,2.67-2.78,2.67H19.5v-5.35H21.27z M21.11,77.88
			c1.47,0,2.39-0.94,2.39-2.18c0-1.25-0.94-2.17-2.36-2.17h-1.1v4.35H21.11z"/>
		<path class="st2" d="M26.47,73.03v5.35h-0.54v-5.35H26.47z"/>
		<path class="st2" d="M28.53,73.03l1.7,4.53h0.02L32,73.03h0.59l-2.08,5.35h-0.54l-2.03-5.35H28.53z"/>
		<path class="st2" d="M34.58,73.03v5.35h-0.54v-5.35H34.58z"/>
		<path class="st2" d="M39.79,73.54l-0.48,0.37c-0.24-0.36-0.58-0.52-1.03-0.52c-0.64,0-1.14,0.37-1.14,0.97
			c0,0.49,0.32,0.78,0.98,0.99c1,0.32,1.75,0.57,1.76,1.61c0.01,0.89-0.82,1.56-1.77,1.56c-0.69,0-1.29-0.27-1.68-0.79l0.49-0.35
			c0.23,0.4,0.66,0.65,1.21,0.65c0.6,0,1.16-0.4,1.16-0.97c0-0.52-0.28-0.81-1.1-1.06c-0.91-0.29-1.64-0.54-1.64-1.57
			c0-0.94,0.76-1.52,1.73-1.52C38.97,72.89,39.43,73.12,39.79,73.54z"/>
		<path class="st2" d="M42.27,73.03v5.35h-0.54v-5.35H42.27z"/>
		<path class="st2" d="M49.69,75.7c0,1.6-1.19,2.81-2.79,2.81c-1.59,0-2.79-1.22-2.79-2.81s1.19-2.81,2.79-2.81
			C48.51,72.89,49.69,74.11,49.69,75.7z M46.9,78.01c1.32,0,2.2-1.03,2.2-2.31s-0.9-2.31-2.21-2.31c-1.28,0-2.19,1-2.19,2.31
			S45.61,78.01,46.9,78.01z"/>
		<path class="st2" d="M52.2,73.03l3.19,4.53h0.02v-4.53h0.54v5.35h-0.68l-3.19-4.58h-0.02v4.58h-0.54v-5.35H52.2z"/>
		<path class="st2" d="M65.27,73.74l-0.48,0.36c-0.25-0.4-0.88-0.7-1.38-0.7c-1.3,0-2.2,1.02-2.2,2.31c0,1.31,0.91,2.31,2.2,2.31
			c0.67,0,1.18-0.26,1.53-0.8l0.45,0.32c-0.39,0.6-1.16,0.98-1.98,0.98c-1.59,0-2.79-1.22-2.79-2.81c0-1.59,1.19-2.81,2.79-2.81
			C64.17,72.89,64.84,73.19,65.27,73.74z"/>
		<path class="st2" d="M72.28,75.7c0,1.6-1.19,2.81-2.79,2.81s-2.79-1.22-2.79-2.81s1.19-2.81,2.79-2.81
			C71.1,72.89,72.28,74.11,72.28,75.7z M69.49,78.01c1.32,0,2.2-1.03,2.2-2.31s-0.9-2.31-2.21-2.31c-1.28,0-2.19,1-2.19,2.31
			S68.2,78.01,69.49,78.01z"/>
		<path class="st2" d="M74.57,73.03v3.33c0,1.05,0.54,1.65,1.41,1.65c0.88,0,1.41-0.6,1.41-1.65v-3.33h0.54v3.38
			c0,1.23-0.66,2.1-1.96,2.1c-1.29,0-1.96-0.85-1.96-2.1v-3.38H74.57z"/>
		<path class="st2" d="M81.73,73.03c1.06,0,1.72,0.49,1.72,1.43c0,0.75-0.48,1.3-1.36,1.38l1.53,2.54h-0.67l-1.46-2.49h-0.91v2.49
			h-0.54v-5.35H81.73z M81.6,75.39c0.81,0,1.27-0.33,1.27-0.94c0-0.61-0.48-0.93-1.27-0.93h-1v1.87H81.6z"/>
		<path class="st2" d="M88.29,73.54l-0.48,0.37c-0.24-0.36-0.58-0.52-1.03-0.52c-0.64,0-1.14,0.37-1.14,0.97
			c0,0.49,0.32,0.78,0.98,0.99c1,0.32,1.75,0.57,1.76,1.61c0.01,0.89-0.82,1.56-1.77,1.56c-0.69,0-1.29-0.27-1.68-0.79l0.49-0.35
			c0.23,0.4,0.66,0.65,1.21,0.65c0.6,0,1.16-0.4,1.16-0.97c0-0.52-0.28-0.81-1.1-1.06c-0.91-0.29-1.64-0.54-1.64-1.57
			c0-0.94,0.76-1.52,1.73-1.52C87.47,72.89,87.93,73.12,88.29,73.54z"/>
		<path class="st2" d="M93.54,73.03v0.5h-2.77v1.82h2.59v0.5h-2.59v2.03h2.86v0.5h-3.41v-5.35H93.54z"/>
		<path class="st2" d="M98.47,73.54l-0.48,0.37c-0.24-0.36-0.58-0.52-1.04-0.52c-0.64,0-1.14,0.37-1.14,0.97
			c0,0.49,0.32,0.78,0.98,0.99c1,0.32,1.75,0.57,1.76,1.61c0.01,0.89-0.82,1.56-1.77,1.56c-0.69,0-1.29-0.27-1.68-0.79l0.49-0.35
			c0.23,0.4,0.66,0.65,1.21,0.65c0.6,0,1.16-0.4,1.16-0.97c0-0.52-0.28-0.81-1.1-1.06c-0.91-0.29-1.64-0.54-1.64-1.57
			c0-0.94,0.76-1.52,1.73-1.52C97.64,72.89,98.11,73.12,98.47,73.54z"/>
	</g>
	<g>
		<path class="st2" d="M13.25,44.06V20.51l-4.78,3.61l-3.2-5.59l8.75-6.41h6.31v31.94H13.25z"/>
		<path class="st2" d="M36.03,24.39c0,1.14-0.35,2.09-1.06,2.84c-0.71,0.75-1.6,1.13-2.68,1.13s-1.97-0.38-2.66-1.13
			c-0.69-0.75-1.04-1.7-1.04-2.84c0-1.05,0.35-1.97,1.04-2.75c0.69-0.78,1.58-1.17,2.66-1.17s1.98,0.39,2.68,1.17
			C35.67,22.42,36.03,23.34,36.03,24.39z M36.03,40.22c0,1.14-0.35,2.09-1.06,2.84c-0.71,0.75-1.6,1.13-2.68,1.13
			s-1.97-0.38-2.66-1.13c-0.69-0.75-1.04-1.7-1.04-2.84c0-0.54,0.09-1.05,0.27-1.53c0.18-0.48,0.44-0.9,0.77-1.26
			c0.33-0.36,0.72-0.65,1.17-0.86s0.95-0.32,1.49-0.32c0.54,0,1.04,0.11,1.49,0.32s0.85,0.5,1.2,0.86c0.35,0.36,0.61,0.78,0.79,1.26
			C35.94,39.17,36.03,39.68,36.03,40.22z"/>
		<path class="st2" d="M49.24,44.06h-7.85l9.43-25.58H39.86v-6.36h18.81v5.41L49.24,44.06z"/>
	</g>
</g>
</svg>
